# xmcd
#
# Track frame offsets:
#	150
#	13892
#	26522
#	41258
#	53683
#	67562
#	80040
#	94182
#	108063
#	122970
#	136915
#	150695
#	163253
#	177185
#	189654
#	204746
#	219370
#	232394
#	244993
#	256907
#	269409
#	282706
#	297306
#	312181
#	328495
#
# Disc length: 4576 seconds
#
# Revision: 0
# Processed by: cddbd v1.4PL0 Copyright (c) Steve Scherf et al.
# Submitted via: dBpowerAMP V4.0
#
DISCID=7a11de19
DTITLE=Donald Peers - Cavalier of Song
DYEAR=1900
DGENRE=
TTITLE0=In a Shady Nook, By a Babbling Brook
TTITLE1=Sundown In a Little Green Hollow
TTITLE2=Don't Blame Me
TTITLE3=I'll String Along With You
TTITLE4=Cheek to Cheek
TTITLE5=Amapola
TTITLE6=Russian Rose
TTITLE7=Maria Elena
TTITLE8=Nevada
TTITLE9=Twelfth Street Rag
TTITLE10=Faraway Places
TTITLE11=Powder Your Face With Sunshine
TTITLE12=For You
TTITLE13=A Strawberry Moon In a Blueberry Sky
TTITLE14=Lavender Blue, Dilly, Dilly
TTITLE15=My Golden Baby
TTITLE16=Everywhere You Go
TTITLE17=Bow Bells
TTITLE18=Enjoy Yourself, It's Later Than You Think
TTITLE19=I Remember The Cornfields
TTITLE20=Hors D'Oeuvres
TTITLE21=Beloved, Be Faithful
TTITLE22=Clancy Lowered The Boom
TTITLE23=I Told Them All About You
TTITLE24=The Zither Melody (The Harry Lime Theme)
EXTD=
EXTT0=
EXTT1=
EXTT2=
EXTT3=
EXTT4=
EXTT5=
EXTT6=
EXTT7=
EXTT8=
EXTT9=
EXTT10=
EXTT11=
EXTT12=
EXTT13=
EXTT14=
EXTT15=
EXTT16=
EXTT17=
EXTT18=
EXTT19=
EXTT20=
EXTT21=
EXTT22=
EXTT23=
EXTT24=
PLAYORDER=
